<svg width="102" height="60" viewBox="0 0 102 60" fill="none" xmlns="http://www.w3.org/2000/svg">
<path d="M77.6588 54.2712C77.5177 54.2892 77.3198 54.3919 77.0674 54.5767C76.1939 55.2108 75.1646 55.5266 73.9818 55.5266C73.2048 55.5266 72.1977 54.9875 70.9555 53.9118L69.6713 52.7823L69.3521 52.4999L67.3849 50.7388C66.8182 50.2767 65.826 49.5554 64.4032 48.5747C65.3756 48.3154 66.2838 47.9843 67.13 47.5812L45.1668 47.5838C45.491 47.9714 45.8621 48.1665 46.2877 48.1665C46.5129 48.1665 46.8371 48.146 47.2577 48.1075C47.6363 48.069 48.25 48.0485 49.0938 48.0485C49.8658 48.0485 50.4077 48.0639 50.7294 48.0972L50.67 48.223C50.0093 49.6504 49.6505 51.1008 49.5936 52.5692C49.5911 52.6437 49.5887 52.7181 49.5936 52.7823C49.6134 53.2495 49.7866 53.4806 50.1157 53.4806C50.3285 53.4806 50.4844 53.2521 50.5809 52.7823C50.5982 52.6822 50.618 52.5743 50.6354 52.4511C50.7912 51.1162 51.2267 49.979 51.9443 49.0445C52.6619 48.1101 53.4537 47.6403 54.3099 47.6403C55.2972 47.6403 56.8487 48.3925 58.9594 49.8968L62.5102 52.4383C62.6043 52.5076 62.7552 52.6206 62.963 52.7823C63.5594 53.2392 64.6185 54.0659 66.1452 55.2673C68.439 57.0771 70.4334 57.9808 72.1259 57.9808C73.3805 57.9808 74.6845 57.606 76.0455 56.8512C77.4015 56.099 78.0696 55.3777 78.0399 54.6897C78.025 54.3919 77.9013 54.2507 77.6588 54.2712Z" fill="white"/>
<path d="M100.92 46.8806C99.5809 46.5572 98.6951 46.1156 98.2571 45.5534C97.8216 44.9938 97.2698 43.5613 96.6116 41.2611L96.1439 39.7183L87.028 8.32711C86.8721 7.77774 86.6866 7.50049 86.4614 7.50049C86.2387 7.50049 86.0358 7.78544 85.8552 8.35792L78.8277 29.3803H80.592C80.6143 29.1878 80.7033 28.8643 80.8642 28.4125L84.9891 16.1056C85.1153 15.7256 85.2291 15.5459 85.3281 15.5665C85.526 15.5845 85.7116 15.8976 85.8799 16.5009L86.0482 17.0991L89.3713 28.3535L89.4777 28.8643C89.5272 29.0774 89.5594 29.252 89.5742 29.3803C89.5817 29.4317 89.5841 29.4805 89.5841 29.519C89.5841 29.9939 89.2303 30.2301 88.5251 30.2301H82.1311L81.562 30.2018C80.9112 30.2018 80.5871 29.9528 80.5871 29.4625C80.5871 29.4368 80.587 29.4086 80.592 29.3803H78.8277L74.9799 40.894L74.3663 42.7757C74.0545 43.6511 73.6586 44.4932 73.181 45.3018C72.701 46.1079 72.3199 46.57 72.0378 46.683L71.2559 46.9987C71.0283 47.0911 70.907 47.2862 70.8971 47.5789C70.8946 47.5943 70.8946 47.6097 70.8946 47.6277C70.8946 47.9871 71.0852 48.1668 71.4662 48.1668C71.5355 48.1668 71.929 48.1052 72.6441 47.9794C72.8692 47.9486 73.186 47.9332 73.5943 47.9332C74.4776 47.9332 75.2596 47.9511 75.9326 47.9922L77.9592 48.136C78.2833 48.1565 78.5184 48.1668 78.6743 48.1668C79.0826 48.1668 79.2781 48.005 79.2657 47.6816C79.2632 47.6482 79.2583 47.6123 79.2533 47.5789C79.2063 47.2939 78.9886 47.0988 78.605 46.9987C77.6301 46.7138 76.9744 46.3723 76.6403 45.9718C76.3087 45.5739 76.1429 44.9296 76.1429 44.0413C76.1429 43.1095 76.4572 41.6898 77.0907 39.7722L78.4937 35.5928C78.9143 34.3041 79.2533 33.5443 79.5082 33.3183C79.7631 33.0899 80.4114 32.9744 81.4556 32.9744H89.1165C89.9083 32.9744 90.3859 33.0565 90.5566 33.2182C90.7273 33.38 90.9599 33.9832 91.2569 35.0281L92.3184 38.789C93.1845 41.7925 93.6175 43.7949 93.6175 44.8012C93.6175 45.9025 93.2636 46.5495 92.5535 46.7394L91.8953 46.9371C91.5414 47.0372 91.3633 47.2426 91.3633 47.5532V47.5789C91.3732 47.9717 91.5563 48.1668 91.9126 48.1668C92.0536 48.1668 92.2714 48.1257 92.5683 48.0487C93.0607 47.9332 94.2881 47.8741 96.2454 47.8741C98.121 47.8741 99.425 47.9152 100.157 47.9999C100.566 48.0307 100.835 48.0487 100.962 48.0487C101.34 48.0487 101.536 47.8946 101.553 47.5815V47.5763C101.568 47.2246 101.358 46.9936 100.92 46.8806Z" fill="white"/>
<path d="M63.1504 47.1137C60.1192 47.1137 57.3824 45.6222 54.9327 42.6366C52.1886 39.2685 50.595 34.8504 50.1546 29.3798C50.0704 28.335 50.0284 27.2491 50.0284 26.1247C50.0284 21.2933 50.9909 17.3733 52.9136 14.3594C54.8412 11.3456 57.3453 9.83868 60.431 9.83868C64.0832 9.83868 67.1862 11.9052 69.7423 16.0409C72.0435 19.7684 73.308 24.2122 73.5356 29.3798C73.5604 29.9498 73.5752 30.5274 73.5752 31.1152C73.5752 35.8876 72.6151 39.746 70.6974 42.6931C68.7773 45.6402 66.2632 47.1137 63.1504 47.1137ZM74.6838 38.8732C75.8517 35.9851 76.4877 32.8224 76.5941 29.3824C76.6064 29.0384 76.6089 28.6918 76.6089 28.3453C76.6089 22.3715 75.2232 17.5119 72.4518 13.7664C69.6804 10.0184 66.0925 8.14435 61.6905 8.14435C56.7242 8.14435 52.8765 10.388 50.1373 14.878C47.8385 18.6671 46.6904 23.2623 46.6904 28.6636C46.6904 28.9049 46.6928 29.1437 46.6978 29.3798C46.8388 35.8311 48.9273 41.1605 52.9581 45.3604C52.3841 45.6761 51.857 46.205 51.372 46.9417L50.6495 46.7389C49.2687 46.359 47.9919 45.3398 46.819 43.6815L36.6812 29.3798H28.7382V40.3724C28.7382 42.765 28.5625 44.467 28.2161 45.4785C28.1394 45.6992 28.0503 45.8969 27.9489 46.0766C27.7039 45.9149 27.5084 45.7429 27.36 45.5555C26.922 44.9933 26.3751 43.5608 25.712 41.2606L25.2468 39.7178L16.1309 8.32919C15.9775 7.77725 15.787 7.5 15.5668 7.5C15.3441 7.5 15.1411 7.78752 14.958 8.35743L7.93308 29.3798H9.69488C9.71715 29.1899 9.80624 28.8664 9.96707 28.412L14.0945 16.1051C14.2206 15.7252 14.332 15.5455 14.4335 15.566C14.6289 15.584 14.812 15.8972 14.9803 16.5004L15.1535 17.1012L18.4742 28.353L18.5806 28.8664C18.6301 29.0795 18.6623 29.2515 18.6771 29.3798C18.6821 29.4312 18.687 29.48 18.687 29.5185C18.687 29.9934 18.3357 30.2296 17.628 30.2296H11.2365L10.6649 30.2013C10.0141 30.2013 9.68994 29.9523 9.68994 29.462C9.68994 29.4363 9.69241 29.4107 9.69488 29.3798H7.93308L4.08284 40.8935L3.46918 42.7778C3.1574 43.6507 2.76396 44.4927 2.28144 45.3013C1.80387 46.1074 1.42281 46.5695 1.14072 46.6825L0.358796 46.9982C0.131147 47.0906 0.00989779 47.2857 0 47.581V47.6272C0 47.9866 0.188057 48.1663 0.569122 48.1663C0.638406 48.1663 1.03185 48.1047 1.74944 47.9789C1.97214 47.9481 2.28886 47.9327 2.69715 47.9327C3.583 47.9327 4.36245 47.9506 5.03797 47.9917L7.0596 48.1355C7.38375 48.156 7.62377 48.1663 7.77719 48.1663C8.18547 48.1663 8.38096 48.0045 8.36611 47.6811C8.36611 47.6477 8.36116 47.6118 8.35621 47.581C8.30672 47.2934 8.09144 47.0983 7.71038 46.9982C6.7305 46.7133 6.07972 46.3718 5.74567 45.9739C5.41162 45.5734 5.24583 44.9291 5.24583 44.0409C5.24583 43.109 5.56256 41.6893 6.19354 39.7742L7.59655 35.5924C8.01968 34.3036 8.35621 33.5438 8.61108 33.3179C8.86594 33.0894 9.51425 32.9739 10.5585 32.9739H18.2218C19.0112 32.9739 19.4887 33.056 19.6595 33.2177C19.8277 33.3795 20.0628 33.9828 20.3573 35.0276L21.4238 38.7885C22.2873 41.792 22.7204 43.7944 22.7204 44.8033C22.7204 45.902 22.3665 46.549 21.6564 46.7389L20.9982 46.9392C20.6418 47.0367 20.4662 47.2421 20.4662 47.5527V47.581C20.4761 47.9712 20.6567 48.1663 21.0155 48.1663C21.1565 48.1663 21.3743 48.1278 21.6712 48.0482C22.1661 47.9327 23.391 47.8736 25.3507 47.8736C26.3652 47.8736 27.2882 47.8608 28.0404 47.8633C28.5922 47.889 34.182 48.1278 34.6274 48.1945C35.1916 48.269 35.5751 48.3177 35.7756 48.3434C36.1269 48.3588 36.2977 48.1765 36.2853 47.7863C36.2803 47.7119 36.2655 47.6426 36.2408 47.581C36.1566 47.3807 35.9611 47.2472 35.6494 47.1728C34.0855 46.8314 33.0834 46.3077 32.6454 45.6043C32.2099 44.9009 31.9897 43.4555 31.9897 41.2683V30.8252C31.9897 30.3887 32.1208 30.168 32.3806 30.168C32.5538 30.168 32.727 30.2732 32.9003 30.4837L33.3234 31.1127L44.6836 46.8878L45.0448 47.4218C45.082 47.4783 45.124 47.5322 45.1661 47.581H67.1293C67.9508 47.1882 68.7129 46.7338 69.4157 46.205C71.6452 44.4927 73.402 42.0487 74.6838 38.8732Z" fill="white"/>
<path d="M35.2864 26.93C35.3012 26.699 35.4621 26.3961 35.7714 26.0136L43.0042 17.1671C46.607 12.7978 49.0443 10.395 50.3137 9.95601C51.0065 9.73266 51.3455 9.47081 51.3307 9.17046C51.3035 8.79822 51.0981 8.61082 50.7146 8.61082C50.6007 8.61082 50.3855 8.65189 50.0588 8.72891C49.7743 8.78795 49.1878 8.81619 48.297 8.81619L46.7059 8.84443L44.7536 8.76742C44.0187 8.76742 43.3555 8.73404 42.7617 8.66473C42.5068 8.62879 42.3163 8.61082 42.1876 8.61082C41.7496 8.61082 41.5294 8.80335 41.5294 9.18586C41.5294 9.53242 41.8511 9.7686 42.492 9.89696C43.509 10.146 44.0162 10.7082 44.0162 11.581C44.0162 12.5925 43.3184 13.9325 41.9228 15.6114L32.8367 26.6091L32.5199 26.9531L32.1809 27.2663C32.0523 27.2663 31.9904 27.0661 31.9904 26.663V15.4651C31.9904 13.5115 32.1092 12.2074 32.3443 11.5476C32.5769 10.8853 33.1435 10.2974 34.0368 9.77887C34.3783 9.59917 34.549 9.38096 34.549 9.12682C34.549 8.76485 34.3807 8.59028 34.0393 8.61082C33.9254 8.61082 33.584 8.66216 33.0173 8.75714C32.708 8.78282 32.3393 8.79565 31.9137 8.79565L30.3202 8.86753L29.5333 8.90604C27.9892 8.90604 26.8559 8.83929 26.1309 8.70837C25.834 8.64419 25.5791 8.61082 25.3663 8.61082C24.9852 8.61082 24.7922 8.80592 24.7922 9.19613C24.7922 9.47338 24.9754 9.66848 25.344 9.77887L26.3833 10.069C27.3013 10.3334 27.9249 10.875 28.249 11.6863C28.5757 12.5026 28.739 13.9325 28.739 15.9785V29.3791H36.6795L35.7936 28.1315C35.4423 27.6155 35.2715 27.215 35.2864 26.93Z" fill="white"/>
</svg>
