<svg width="188" height="60" viewBox="0 0 188 60" fill="none" xmlns="http://www.w3.org/2000/svg">
<path d="M68.6643 41.9889H72.9504L72.2404 38.6331V18.627H68.1404V27.7519C66.9071 26.3096 65.2109 25.4635 63.2079 25.4635C59.1073 25.4635 55.9326 28.8807 55.9326 33.8986C55.9326 38.9158 59.1073 42.3337 63.2079 42.3337C65.2426 42.3337 66.9992 41.4555 68.2331 39.9498L68.6643 41.9889ZM149.712 29.948C150.544 29.948 151.314 30.1666 152.023 30.6679L153.966 26.2474C153.071 25.682 152.023 25.4321 151.006 25.4321C149.156 25.4321 147.615 26.2762 146.63 27.8468L146.197 25.8064H141.973L142.652 28.9736V41.9862H146.75V31.671C147.305 30.6044 148.353 29.9467 149.71 29.9467V29.948H149.712ZM161.733 37.9748C159.361 37.9748 157.603 36.3761 157.603 33.8979C157.603 31.3897 159.361 29.8224 161.733 29.8224C164.139 29.8224 165.866 31.3897 165.866 33.8979C165.866 36.3761 164.138 37.9748 161.733 37.9748ZM59.9087 33.8979C59.9087 31.3897 61.666 29.8224 64.0392 29.8224C66.4448 29.8224 68.1709 31.3897 68.1709 33.8979C68.1709 36.3761 66.4448 37.9748 64.0405 37.9748C61.6672 37.9748 59.9087 36.3761 59.9087 33.8979ZM179.892 37.9748C177.519 37.9748 175.762 36.3761 175.762 33.8979C175.762 31.3897 177.519 29.8224 179.892 29.8224C182.297 29.8224 184.023 31.3897 184.023 33.8979C184.023 36.3761 182.297 37.9748 179.892 37.9748ZM82.9069 29.5711C85.0337 29.5711 86.4213 30.5743 86.8525 32.4242H78.9612C79.4236 30.5743 80.8112 29.5711 82.9069 29.5711ZM131.953 29.5711C134.081 29.5711 135.469 30.5743 135.9 32.4242H128.009C128.471 30.5743 129.858 29.5711 131.954 29.5711H131.953ZM111.948 41.9889H118.545L122.831 25.8083H118.36L115.217 38.9158L112.072 25.8083H107.663L111.949 41.9882L111.948 41.9889ZM101.373 41.9889H105.471V25.8077H101.373V41.9889ZM83.5352 42.2886C85.8176 42.2886 88.0676 41.6604 89.948 40.4379L88.3763 36.8637C86.8959 37.6476 85.2626 38.1181 83.5974 38.1181C81.4401 38.1181 79.9293 37.2713 79.2816 35.7034H90.8104C90.9336 35.1079 90.9965 34.5124 90.9965 33.7906C90.9965 28.7734 87.5748 25.4183 82.9808 25.4183C78.3576 25.4183 74.9663 28.8048 74.9663 33.8534C74.9663 38.9957 78.3264 42.2886 83.5365 42.2886H83.5352ZM188 33.8979C188 28.8807 184.547 25.4628 179.892 25.4628C175.237 25.4628 171.784 28.8807 171.784 33.8979C171.784 38.9158 175.237 42.3331 179.892 42.3331C184.547 42.3331 187.999 38.9158 187.999 33.8979H188ZM132.51 42.3331C134.789 42.3331 137.04 41.7062 138.922 40.4831L137.349 36.9068C135.869 37.6908 134.235 38.1607 132.57 38.1607C130.413 38.1607 128.902 37.3152 128.254 35.7459H139.784C139.907 35.1505 139.968 34.555 139.968 33.8338C139.968 28.8166 136.546 25.4615 131.953 25.4615C127.329 25.4615 123.938 28.8473 123.938 33.8966C123.938 39.0389 127.299 42.3318 132.509 42.3318V42.3331H132.51ZM161.734 42.3331C166.39 42.3331 169.841 38.9158 169.841 33.8979C169.841 28.8807 166.389 25.4628 161.733 25.4628C157.078 25.4628 153.625 28.8807 153.625 33.8979C153.625 38.9158 157.078 42.3331 161.733 42.3331H161.734ZM93.6045 41.9882H97.7038V18.6264H93.6038V41.9882H93.6045ZM103.438 23.5801C104.886 23.5801 105.996 22.4506 105.996 20.9455C105.996 19.4404 104.888 18.3116 103.438 18.3116C101.959 18.3116 100.849 19.4404 100.849 20.9455C100.849 22.4506 101.959 23.5795 103.439 23.5795L103.438 23.5801ZM33.0013 3.90056L30.654 26.3214L26.65 7.41857L14.0966 10.0977L18.0987 28.9992L0 32.8601L3.19671 47.9589L35.0237 54.7476L42.3022 38.3406L45.7661 5.24795L33 3.8999L33.0013 3.90121V3.90056ZM22.9443 36.4259C22.2881 37.0292 21.4205 36.9736 20.4998 36.666C19.581 36.3598 19.1725 35.244 19.5207 33.8953C19.78 32.8941 21.001 32.7436 21.6118 32.7331C21.8439 32.7292 22.0722 32.7763 22.2829 32.8719C22.7148 33.0682 23.4462 33.487 23.5947 34.1257C23.8087 35.0471 23.6025 35.8205 22.9463 36.4239H22.945V36.4252L22.9443 36.4259ZM32.1583 37.4663C31.6818 38.2974 30.4303 38.4074 29.199 37.8027C28.369 37.3944 28.3755 36.3552 28.4662 35.7217C28.5144 35.3762 28.6532 35.05 28.8683 34.7768C29.1646 34.3999 29.6593 33.9084 30.2312 33.8934C31.1611 33.8685 31.9612 34.2873 32.4132 35.0451C32.8671 35.8003 32.6401 36.6333 32.1622 37.4663H32.1583Z" fill="white"/>
</svg>
