<svg width="117" height="60" viewBox="0 0 117 60" fill="none" xmlns="http://www.w3.org/2000/svg">
<path fill-rule="evenodd" clip-rule="evenodd" d="M28.9603 29.6492C28.9603 21.3747 24.3354 15 12.5783 15H0V44.2985H12.5783C24.3354 44.2985 28.9603 37.9238 28.9603 29.6492ZM20.4019 29.6492C20.4019 35.4329 17.0736 37.586 12.4487 37.586H8.1694V21.7125H12.4487C17.0736 21.7125 20.4019 23.8655 20.4019 29.6492Z" fill="white"/>
<path d="M30.9155 44.2985H54.6889V37.6282H39.0848V32.6045H52.7871V26.2719H39.0848V21.6702H54.2999V15H30.9155V44.2985Z" fill="white"/>
<path fill-rule="evenodd" clip-rule="evenodd" d="M70.0022 15C77.5233 15 82.3644 17.7863 82.3644 25.1743C82.3644 32.5622 77.5233 35.3486 70.0022 35.3486H65.1611V44.2985H56.9916V15H70.0022ZM69.1807 29.2271C72.5091 29.2271 73.8923 28.045 73.8923 25.1743C73.8923 22.3035 72.5091 21.1214 69.1807 21.1214H65.1611V29.2271H69.1807Z" fill="white"/>
<path d="M83.2555 21.8391H92.7214V44.2985H100.891V21.8391H110.357V15H83.2555V21.8391Z" fill="white"/>
<path fill-rule="evenodd" clip-rule="evenodd" d="M111.12 42.5743H109.569V37.5873H112.412C113.662 37.5873 114.394 38.1133 114.394 39.2286C114.394 39.8599 114.008 40.4281 113.49 40.6385L114.61 42.5743H112.93L112.004 40.933H111.12V42.5743ZM112.068 39.8178C112.564 39.8178 112.822 39.6494 112.822 39.2496C112.822 38.892 112.564 38.7656 112.068 38.7656H111.12V39.8178H112.068Z" fill="white"/>
<path fill-rule="evenodd" clip-rule="evenodd" d="M111.875 44.9942C109.16 44.9942 106.962 42.8479 106.962 40.1965C106.962 37.5452 109.16 35.3778 111.875 35.3778C114.589 35.3778 116.808 37.5452 116.808 40.1965C116.808 42.8479 114.589 44.9942 111.875 44.9942ZM111.875 36.2195C109.677 36.2195 107.91 38.0082 107.91 40.1965C107.91 42.3849 109.677 44.1525 111.875 44.1525C114.071 44.1525 115.86 42.3849 115.86 40.1965C115.86 38.0082 114.071 36.2195 111.875 36.2195Z" fill="white"/>
</svg>
