<svg width="117" height="60" viewBox="0 0 117 60" fill="none" xmlns="http://www.w3.org/2000/svg">
<path d="M15.1565 26.1539V30.2885L24.9152 30.2841C24.6158 32.5645 23.8565 34.2342 22.7023 35.4029C21.279 36.8441 19.0574 38.4303 15.1565 38.4303C9.14253 38.4303 4.43892 33.5223 4.43892 27.4325C4.43892 21.3426 9.14253 16.4347 15.1565 16.4347C18.4022 16.4347 20.7714 17.7265 22.52 19.3873L25.4012 16.4698C22.9626 14.1103 19.717 12.3 15.1609 12.3C6.92524 12.3 0 19.0929 0 27.4325C0 35.772 6.92524 42.5649 15.1609 42.5649C19.6041 42.5649 22.9583 41.0886 25.5835 38.3204C28.2824 35.5875 29.1198 31.7516 29.1198 28.6496C29.1198 27.7269 29.0504 26.8745 28.9159 26.1539H15.1565Z" fill="white"/>
<path d="M97.474 41.9717V13.4117H93.3519V41.9717H97.474Z" fill="white"/>
<path fill-rule="evenodd" clip-rule="evenodd" d="M116.818 38.2459L113.537 36.0314C112.444 37.6572 110.951 38.7293 108.799 38.7293C106.651 38.7293 105.119 37.7319 104.135 35.7766L117 30.3809L116.562 29.2737C115.763 27.0987 113.32 23.074 108.326 23.074C103.366 23.074 99.2487 27.024 99.2487 32.8195C99.2487 38.2855 103.332 42.5651 108.799 42.5651C113.208 42.5651 115.759 39.8321 116.818 38.2459ZM112.04 28.909L103.44 32.5251C103.332 28.764 106.321 26.8439 108.469 26.8439C110.144 26.8439 111.567 27.6919 112.04 28.909Z" fill="white"/>
<path fill-rule="evenodd" clip-rule="evenodd" d="M90.8567 23.6715V41.1635C90.8567 48.3606 86.6651 51.3001 81.7098 51.3001C77.0453 51.3001 74.2379 48.1409 73.1791 45.5573L76.8587 44.0063C77.5139 45.5925 79.1194 47.4642 81.7055 47.4642C84.8774 47.4642 86.843 45.4826 86.843 41.7522V40.3506H86.6955C85.7496 41.5325 83.9271 42.5651 81.6274 42.5651C76.8153 42.5651 72.4068 38.3206 72.4068 32.8591C72.4068 27.358 76.8153 23.0784 81.6274 23.0784C83.9228 23.0784 85.7452 24.1109 86.6955 25.2577H86.843V23.6715H90.8567ZM87.1424 32.8591C87.1424 29.4275 84.8817 26.9186 82.0049 26.9186C79.089 26.9186 76.6461 29.4275 76.6461 32.8591C76.6461 36.2555 79.089 38.7293 82.0049 38.7293C84.8817 38.7293 87.1424 36.2555 87.1424 32.8591Z" fill="white"/>
<path fill-rule="evenodd" clip-rule="evenodd" d="M61.2423 42.5695C66.5621 42.5695 70.8969 38.4349 70.8969 32.8239C70.8969 27.1734 66.5621 23.0784 61.2423 23.0784C55.9226 23.0784 51.5878 27.1778 51.5878 32.8239C51.5878 38.4349 55.9226 42.5695 61.2423 42.5695ZM61.2423 26.9186C64.1582 26.9186 66.6705 29.3176 66.6705 32.8239C66.6705 36.2907 64.1582 38.7293 61.2423 38.7293C58.3264 38.7293 55.8141 36.2951 55.8141 32.8239C55.8141 29.3176 58.3264 26.9186 61.2423 26.9186Z" fill="white"/>
<path fill-rule="evenodd" clip-rule="evenodd" d="M50.069 32.8239C50.069 38.4349 45.7342 42.5695 40.4145 42.5695C35.0947 42.5695 30.7599 38.4349 30.7599 32.8239C30.7599 27.1734 35.0947 23.0784 40.4145 23.0784C45.7342 23.0784 50.069 27.1734 50.069 32.8239ZM45.8427 32.8239C45.8427 29.3176 43.3304 26.9186 40.4145 26.9186C37.4986 26.9186 34.9862 29.3176 34.9862 32.8239C34.9862 36.2951 37.4986 38.7293 40.4145 38.7293C43.3304 38.7293 45.8427 36.2907 45.8427 32.8239Z" fill="white"/>
</svg>
