<svg width="92" height="60" viewBox="0 0 92 60" fill="none" xmlns="http://www.w3.org/2000/svg">
<path d="M0 42.15H3.84289V29.004H18.6654V42.15H22.5083V12.75H18.6654V25.602H3.84289V12.75H0V42.15Z" fill="white"/>
<path fill-rule="evenodd" clip-rule="evenodd" d="M63.8974 21.1501V24.0901C63.1654 22.9701 62.2364 22.1161 61.1103 21.5281C60.0123 20.9401 58.675 20.6461 57.0985 20.6461C55.2122 20.6461 53.5512 21.0941 52.1154 21.9901C50.6796 22.8581 49.5535 24.0761 48.737 25.6441C47.9487 27.2121 47.5546 29.0321 47.5546 31.1041C47.5546 33.2881 47.9487 35.1921 48.737 36.8161C49.5535 38.4401 50.6796 39.7141 52.1154 40.6381C53.5793 41.5341 55.2826 41.9821 57.2252 41.9821C60.1249 41.9821 62.349 40.7781 63.8974 38.3701V41.9401C63.8974 43.8441 63.3343 45.3001 62.2082 46.3081C61.1103 47.3161 59.7026 47.8201 57.9853 47.8201C56.2961 47.8201 54.9307 47.5121 53.889 46.8961C52.8474 46.3081 52.2843 45.1461 52.1998 43.4101L48.5681 43.6621C48.6526 45.4261 49.1452 46.8261 50.0461 47.8621C50.947 48.8981 52.0732 49.6401 53.4245 50.0881C54.804 50.5361 56.1835 50.7601 57.563 50.7601C60.6598 50.7601 63.1232 49.9481 64.9532 48.3241C66.7831 46.7001 67.6981 44.4881 67.6981 41.6881V21.1501H63.8974ZM63.644 34.4641C63.3625 35.5561 62.8698 36.4801 62.166 37.2361C61.6874 37.7681 61.0821 38.1881 60.3501 38.4961C59.6463 38.8041 58.8017 38.9581 57.8164 38.9581C56.2116 38.9581 54.9588 38.6501 54.0579 38.0341C53.1852 37.3901 52.5658 36.4801 52.1998 35.3041C51.862 34.1281 51.6931 32.7281 51.6931 31.1041C51.6931 29.8721 51.8057 28.7661 52.0309 27.7861C52.2843 26.8061 52.7066 26.0081 53.2978 25.3921C54.2832 24.2441 55.8175 23.6701 57.9008 23.6701C59.8997 23.6701 61.42 24.2861 62.4616 25.5181C63.5314 26.7501 64.0663 28.6121 64.0663 31.1041C64.0663 32.2241 63.9256 33.3441 63.644 34.4641Z" fill="white"/>
<path fill-rule="evenodd" clip-rule="evenodd" d="M90.9518 28.4581C90.6421 27.0301 90.1635 25.8121 89.516 24.8041C88.6432 23.4321 87.4608 22.3961 85.9687 21.6961C84.5047 20.9961 82.9422 20.6461 81.2812 20.6461C78.1562 20.6461 75.6647 21.6961 73.8066 23.7961C72.9338 24.7761 72.2722 25.9381 71.8218 27.2821C71.3713 28.5981 71.1461 30.0401 71.1461 31.6081C71.1461 33.2321 71.3573 34.7301 71.7796 36.1021C72.2019 37.4461 72.8494 38.6081 73.7221 39.5881C74.623 40.6241 75.7069 41.3941 76.9738 41.8981C78.2407 42.4021 79.6906 42.6541 81.3234 42.6541C83.998 42.6541 86.1658 42.0381 87.8268 40.8061C89.4878 39.5461 90.5435 37.6841 90.994 35.2201L87.32 34.9261C86.8133 38.0621 84.8003 39.6301 81.2812 39.6301C77.3679 39.6301 75.3691 37.3481 75.2846 32.7841H91.2896C91.3741 31.3001 91.2614 29.8581 90.9518 28.4581ZM78.2407 24.3421C79.1134 23.9221 80.141 23.7121 81.3234 23.7121C82.4777 23.7121 83.449 23.8941 84.2373 24.2581C85.0537 24.5941 85.7294 25.1681 86.2643 25.9801C86.6021 26.4841 86.8696 27.1001 87.0667 27.8281C87.2637 28.5281 87.3763 29.1581 87.4045 29.7181H75.3268C75.3268 29.1861 75.3972 28.5841 75.538 27.9121C75.7069 27.2401 75.9744 26.5961 76.3404 25.9801C76.7626 25.2801 77.3961 24.7341 78.2407 24.3421Z" fill="white"/>
<path d="M40.3263 32.952V21.15H44.127V42.15H40.3263V39C39.7633 40.204 38.9046 41.114 37.7503 41.73C36.6242 42.346 35.3151 42.654 33.823 42.654C31.1484 42.654 29.0651 41.87 27.573 40.302C26.7566 39.434 26.2639 38.398 26.095 37.194C25.9542 35.99 25.8838 34.828 25.8838 33.708V21.15H29.8112V33.498C29.8112 34.45 29.8534 35.332 29.9379 36.144C30.0505 36.956 30.4165 37.67 31.0358 38.286C31.6552 38.874 32.2886 39.224 32.9362 39.336C33.6118 39.448 34.2594 39.504 34.8787 39.504C35.3573 39.504 35.9063 39.448 36.5257 39.336C37.145 39.196 37.7363 38.916 38.2993 38.496C38.8905 38.076 39.3691 37.432 39.7351 36.564C40.1293 35.668 40.3263 34.464 40.3263 32.952Z" fill="white"/>
</svg>
