<svg width="149" height="60" viewBox="0 0 149 60" fill="none" xmlns="http://www.w3.org/2000/svg">
<g clip-path="url(#clip0_4442_3978)">
<path d="M0 17.7506H4.29332V40.1589H16.1611V44.0989H0V17.7506ZM20.3845 17.7506C20.733 17.746 21.0788 17.8095 21.4024 17.9373C21.7261 18.0652 22.021 18.255 22.2707 18.4958C22.5203 18.7367 22.7194 19.0239 22.857 19.341C22.9946 19.6581 23.0677 19.999 23.0723 20.3441C23.0723 21.0503 22.7892 21.7276 22.2851 22.227C21.781 22.7263 21.0974 23.0069 20.3845 23.0069C19.6718 23.0069 18.9881 22.7263 18.4841 22.227C17.98 21.7276 17.6969 21.0503 17.6969 20.3441C17.6983 19.9981 17.7694 19.6558 17.9058 19.3373C18.0423 19.0187 18.2414 18.7303 18.4917 18.4889C18.7419 18.2474 19.0382 18.0578 19.3631 17.931C19.6882 17.8043 20.0353 17.7429 20.3845 17.7506ZM18.2903 25.1163H22.409V44.0989H18.2903V25.1163ZM24.8174 25.1163H28.9362V27.7445C30.1557 25.7388 32.25 24.5976 35.0075 24.5976C39.4754 24.5976 42.2678 28.0557 42.2678 33.5541V44.0989H38.149V33.8999C38.149 30.338 36.5782 28.3323 33.7415 28.3323C30.6373 28.3323 28.9269 30.4418 28.9269 34.2457V44.0989H24.8083L24.8174 25.1163ZM44.4319 17.7506H48.5507V34.4185L56.2297 25.1163H61.3956L53.193 34.6261L61.3956 44.0989H56.2297L48.5507 34.8336V44.0989H44.4319V17.7506ZM63.0013 20.2865H67.1899V25.1278H72.0767V28.5168H67.1899V38.3008C67.1899 39.5481 67.9579 40.3087 69.1446 40.3087H71.9046V44.1103H68.5862C64.991 44.1103 63.0013 42.001 63.0013 38.2687V20.2865ZM73.8918 25.1278H78.0106V27.4793C79.0227 25.6811 80.7331 24.6091 82.8275 24.6091C83.3108 24.5873 83.7946 24.6457 84.2585 24.782V28.5859C83.7545 28.4762 83.2384 28.4297 82.7228 28.4476C79.686 28.4476 78.0106 30.9835 78.0106 35.3292V44.1103H73.8918V25.1278ZM93.89 24.6091C98.4276 24.6091 103.349 27.341 103.349 35.0525V35.6059H88.5845C88.901 38.9924 90.8882 40.8599 94.2041 40.8599C96.5778 40.8599 98.6022 39.5803 99.0559 37.819H103.245C102.826 41.6206 98.8466 44.6291 94.2041 44.6291C88.2704 44.6291 84.5378 40.7906 84.5378 34.603C84.5378 29.0931 88.133 24.5976 93.89 24.5976V24.6091ZM98.9512 32.2169C98.3579 29.8654 96.5078 28.3784 93.89 28.3784C91.3769 28.3784 89.5991 29.9 88.901 32.2169H98.9512ZM114.519 24.6091C119.057 24.6091 123.978 27.341 123.978 35.0525V35.6059H109.213C109.527 38.9924 111.517 40.8599 114.833 40.8599C117.207 40.8599 119.231 39.5803 119.685 37.819H123.874C123.455 41.6206 119.475 44.6291 114.833 44.6291C108.899 44.6291 105.164 40.7906 105.164 34.603C105.164 29.0931 108.76 24.5976 114.519 24.5976V24.6091ZM119.58 32.2169C118.987 29.8654 117.137 28.3784 114.519 28.3784C112.006 28.3784 110.226 29.9 109.527 32.2169H119.58Z" fill="white"/>
<path d="M124.992 24.54H132.357L127.121 19.5949L130.018 16.644L135.01 21.7274V14.5H139.338V21.7274L144.329 16.6555L147.224 19.5949L141.991 24.5285H149.353V28.609H141.949L147.217 33.6808L144.329 36.5627L137.174 29.4389L130.018 36.5627L127.121 33.6925L132.392 28.6205H124.992V24.54ZM134.998 34.4646H139.326V44.1474H134.998V34.4646Z" fill="white"/>
</g>
<defs>
<clipPath id="clip0_4442_3978">
<rect width="149" height="60" fill="white"/>
</clipPath>
</defs>
</svg>
