<svg width="204" height="60" viewBox="0 0 204 60" fill="none" xmlns="http://www.w3.org/2000/svg">
<path fill-rule="evenodd" clip-rule="evenodd" d="M18.3131 7.5V20.2136L5.50651 7.56958V21.2833H0V40.8767H5.50786V54.6664L18.3131 42.0238V55.5H19.8131V41.9652L32.6765 54.6666V40.8767H38.183V21.2833H32.6765V7.56945L19.8131 20.2708V7.5H18.3131ZM7.00651 11.1584L17.2617 21.2833H7.00651V11.1584ZM1.5 22.7833H5.50651V22.786H17.2618L5.50794 34.3918L5.50669 39.3767H1.5V22.7833ZM7.00786 51.0776V35.0188L18.3131 23.8571V39.9159L7.00786 51.0776ZM19.8429 39.8866V23.8291L31.1764 35.0187L31.175 40.8767H31.1765V51.0774L19.8429 39.8866ZM32.6765 34.3919V39.3767H36.683V22.7833H32.6765V22.786H20.9226L32.6765 34.3919ZM31.1765 11.1586V21.2833H20.9226L31.1765 11.1586Z" fill="white"/>
<path fill-rule="evenodd" clip-rule="evenodd" d="M78.402 21.3213C76.9571 22.1227 75.8366 23.2613 75.0351 24.74L75.0365 24.7387C74.235 26.2187 73.8349 27.9587 73.8349 29.964C73.8349 31.9693 74.2471 33.7107 75.0716 35.1907C75.8961 36.6707 77.068 37.8107 78.5831 38.6093C80.0997 39.408 81.8527 39.808 83.8423 39.808C86.4861 39.808 88.5189 39.1707 89.9368 37.8933C91.356 36.6173 92.2953 35.1067 92.7562 33.3653H89.2988C88.9095 34.488 88.2986 35.364 87.4606 35.996C86.6253 36.628 85.4169 36.944 83.8409 36.944C81.8987 36.944 80.3524 36.396 79.2008 35.2973C78.0492 34.2 77.4126 32.72 77.291 30.8587H92.39V28.712C92.39 27.1627 92.0561 25.7373 91.3898 24.436C90.7234 23.136 89.7164 22.092 88.3702 21.304C87.0254 20.516 85.4183 20.1227 83.4774 20.1227C81.5364 20.1227 79.8442 20.5227 78.402 21.3213ZM87.4795 24.3627C88.3283 25.2827 88.7527 26.552 88.7527 28.1747H77.3275C77.5694 26.5053 78.2304 25.2213 79.3103 24.3267C80.3889 23.432 81.7784 22.9853 83.476 22.9853C85.2966 22.9853 86.6307 23.444 87.4795 24.3627Z" fill="white"/>
<path d="M96.926 23.6293V20.6587L93.6483 20.6573V39.2707H96.9233V28.712C96.9233 26.9693 97.3234 25.7173 98.1249 24.9533C98.9264 24.1893 100.139 23.808 101.765 23.808H103.84V20.588H102.239C99.7401 20.588 98.1749 21.5667 97.545 23.5227C97.4977 23.6653 97.4504 23.76 97.4004 23.808C97.3504 23.856 97.2788 23.88 97.1815 23.88C97.0112 23.88 96.926 23.7973 96.926 23.6293Z" fill="white"/>
<path fill-rule="evenodd" clip-rule="evenodd" d="M119.721 38.696C121.092 37.9573 122.208 36.8413 123.069 35.3507C123.93 33.8587 124.361 32.0627 124.361 29.9653C124.361 27.868 123.93 26.0707 123.069 24.58C122.207 23.088 121.092 21.972 119.721 21.2333C118.351 20.4947 116.876 20.124 115.3 20.124C112.195 20.124 110.011 21.34 108.75 23.7747C108.653 23.964 108.532 24.06 108.386 24.06C108.24 24.06 108.167 23.988 108.167 23.8453V20.66H104.892V46.0693H108.167V36.084C108.167 35.9413 108.242 35.8693 108.386 35.8693C108.531 35.8693 108.653 35.9653 108.75 36.1547C110.011 38.5893 112.195 39.8053 115.3 39.8053C116.876 39.8053 118.351 39.4347 119.721 38.696ZM114.536 22.984C116.5 22.984 118.083 23.5987 119.285 24.828C120.486 26.0573 121.086 27.7693 121.086 29.964C121.086 32.1587 120.486 33.8707 119.285 35.1C118.084 36.3307 116.5 36.944 114.536 36.944C112.572 36.944 110.99 36.3293 109.788 35.1C108.586 33.872 108.146 32.1587 108.146 29.964C108.146 27.7693 108.586 26.0573 109.788 24.828C110.988 23.5987 112.572 22.984 114.536 22.984Z" fill="white"/>
<path d="M129.114 39.2693V13.5027H125.839V39.2693H129.114Z" fill="white"/>
<path fill-rule="evenodd" clip-rule="evenodd" d="M131.811 24.7373C131.009 26.2173 130.61 27.9573 130.61 29.9627C130.61 31.968 131.022 33.7093 131.846 35.1893C132.671 36.6693 133.843 37.8093 135.358 38.608C136.875 39.4067 138.628 39.8067 140.617 39.8067C143.261 39.8067 145.294 39.1693 146.712 37.892C148.129 36.616 149.07 35.1053 149.531 33.364H146.074C145.684 34.4867 145.073 35.3627 144.235 35.9947C143.399 36.6267 142.192 36.9427 140.616 36.9427C138.674 36.9427 137.127 36.3947 135.976 35.296C134.824 34.1987 134.188 32.7187 134.066 30.8573H149.165V28.7107C149.165 27.1613 148.832 25.736 148.165 24.4347C147.498 23.1347 146.491 22.0907 145.145 21.3027C143.8 20.5147 142.19 20.1213 140.251 20.1213C138.311 20.1213 136.619 20.5213 135.177 21.32C133.732 22.1211 132.611 23.2593 131.811 24.7373ZM144.254 24.3613C145.103 25.2813 145.528 26.5507 145.528 28.1733H134.102C134.346 26.504 135.005 25.22 136.085 24.3253C137.164 23.4307 138.555 22.984 140.251 22.984C142.072 22.984 143.406 23.4427 144.254 24.3613Z" fill="white"/>
<path d="M155.203 29.4253L147.708 38.5533H147.71V39.2693H151.386L157.352 31.7893L162.919 39.2693H166.448V38.5533L159.935 29.964L166.993 21.4093V20.6573H163.319L157.788 27.6L152.656 20.6573H149.054V21.3733L155.203 29.4253Z" fill="white"/>
<path d="M171.748 18.628V14.6H167.923V18.628H171.748Z" fill="white"/>
<path d="M168.273 39.2707H171.549V20.6587H168.273V39.2707Z" fill="white"/>
<path fill-rule="evenodd" clip-rule="evenodd" d="M172.584 20.6587V23.3853H176.146V33.184C176.146 35.2373 176.657 36.7627 177.675 37.7653C178.692 38.7693 180.245 39.2693 182.332 39.2693H184.879V36.4067H183.606C182.367 36.4067 181.451 36.436 180.858 36.496C180.263 36.556 179.905 36.5853 179.784 36.5853C179.613 36.5853 179.48 36.5387 179.383 36.4427C179.286 36.348 179.238 36.2173 179.238 36.0493C179.238 35.9307 179.268 35.5787 179.329 34.9933C179.39 34.408 179.421 33.5067 179.421 32.2907V23.3867H184.091L183.17 20.6587H179.421V15.648H176.145V20.6587H172.584Z" fill="white"/>
<path d="M187.495 20.6587H184.157L184.16 20.66L190.438 39.2707H192.657C192.802 39.2707 192.911 39.2827 192.984 39.3067C193.057 39.3293 193.117 39.3893 193.166 39.4853C193.261 39.6307 193.251 39.8453 193.129 40.1307L192.11 42.8507C191.963 43.208 191.684 43.3867 191.272 43.3867C191.126 43.3867 190.785 43.3573 190.253 43.2973C189.719 43.2373 189.028 43.208 188.179 43.208H185.522V46.0707H189.015C191.054 46.0707 192.28 45.7307 193.336 45.0507C194.39 44.3707 195.208 43.172 195.79 41.4533L202.573 21.3747V20.6587H199.459L194.037 36.2733C193.964 36.464 193.849 36.7173 193.478 36.7173C193.106 36.7173 192.991 36.4653 192.917 36.2733L187.495 20.6587Z" fill="white"/>
<path fill-rule="evenodd" clip-rule="evenodd" d="M68.4054 38.7267C69.776 37.988 70.8924 36.872 71.7534 35.3813C72.6144 33.8907 73.0455 32.0947 73.0455 29.996C73.0455 27.8973 72.6144 26.1 71.7534 24.6093C70.8911 23.1187 69.776 22.0027 68.4054 21.264C67.0349 20.5253 65.5603 20.1547 63.9843 20.1547C60.8796 20.1547 58.694 21.3707 57.4343 23.8053C57.337 23.9947 57.2167 24.0907 57.0707 24.0907C56.9247 24.0907 56.8518 24.0187 56.8518 23.876V20.6907H53.5768V46.1H56.8518V36.1147C56.8518 35.972 56.9261 35.9 57.0707 35.9C57.2153 35.9 57.337 35.996 57.4343 36.1853C58.6954 38.62 60.8796 39.836 63.9843 39.836C65.5603 39.836 67.0349 39.4653 68.4054 38.7267ZM63.2206 23.0147C65.1845 23.0147 66.7673 23.6293 67.9688 24.8587C69.1704 26.088 69.7706 27.8 69.7706 29.9947C69.7706 32.1893 69.1704 33.9013 67.9688 35.1307C66.7686 36.3613 65.1845 36.9747 63.2206 36.9747C61.2567 36.9747 59.6739 36.36 58.4724 35.1307C57.2708 33.9027 56.8301 32.1893 56.8301 29.9947C56.8301 27.8 57.2708 26.088 58.4724 24.8587C59.6726 23.6293 61.2567 23.0147 63.2206 23.0147Z" fill="white"/>
</svg>
