<svg width="140" height="60" viewBox="0 0 140 60" fill="none" xmlns="http://www.w3.org/2000/svg">
<path d="M9.70105 25.0262C6.35721 25.0262 4.71573 28.0295 4.71573 32.0462V42.0958H0V20.8822H4.63529V26.3842H4.71573C5.70497 23.0014 7.67692 20.268 10.7164 20.268C12.8557 20.268 13.7602 21.0292 13.7602 21.0292L11.6317 25.3948C11.6317 25.3948 10.9512 25.0262 9.70105 25.0262ZM66.7094 27.9373V42.0892H62.1155V29.6594C62.1155 26.0924 61.0175 24.2058 58.2129 24.2058C55.3104 24.2058 53.9059 26.5948 53.9059 31.1775V42.0892H49.3532V29.6594C49.3532 26.2306 48.2661 24.2058 45.4897 24.2058C42.3198 24.2058 41.1001 27.0357 41.1001 31.1775V42.0892H36.467V20.8822H41.0914V25.6844H41.1327C41.8546 22.3608 43.8243 20.3097 47.1486 20.3097C50.4729 20.3097 52.584 22.1151 53.408 25.3158C54.1842 22.2446 56.2496 20.3097 59.4239 20.3097C63.8613 20.3097 66.7094 23.1396 66.7094 27.9373ZM23.0264 20.2592C18.7651 20.2592 15.9735 22.2994 14.7016 25.9827L18.6151 27.4372C19.3499 25.2259 20.8305 23.9601 23.1069 23.9601C25.668 23.9601 27.1725 25.1074 27.1725 26.8712C27.1725 28.6744 25.9746 29.0649 23.2591 29.5037C20.2522 29.9973 13.0971 30.1618 13.0971 36.3043C13.0971 39.9087 16.0539 42.6223 20.4892 42.6223C23.8287 42.6223 26.1028 41.2315 27.1551 38.6429H27.1964V42.0892H31.7882V29.0452C31.8056 23.3392 28.9879 20.268 23.0264 20.268V20.2592ZM27.2943 32.1055C27.2943 36.5522 25.1353 39.4107 21.685 39.4107C19.2456 39.4107 17.7824 38.0154 17.7824 36.0038C17.7824 34.1171 19.2869 32.8075 22.172 32.2744C25.1245 31.7216 26.6116 31.0393 27.2943 29.4028V32.1055ZM83.0525 20.3097C79.5391 20.3097 77.2171 22.284 76.2235 25.2346V20.8822H71.3447V50.25H76.18V37.7303H76.2213C77.2975 40.9331 79.5391 42.6969 83.0503 42.6969C88.6183 42.6969 92.6035 38.022 92.6035 31.4166C92.6035 24.8617 88.6183 20.3097 83.0525 20.3097ZM81.8546 38.7657C77.9976 38.7657 75.8582 35.9138 75.8582 31.4868C75.8582 27.0598 78.2498 24.2058 81.8546 24.2058C85.4593 24.2058 87.8465 27.2002 87.8465 31.4868C87.8465 35.7734 85.4441 38.7657 81.8524 38.7657H81.8546ZM140.002 41.9532V42.0827H121.698V41.9488C123.934 40.6569 125.986 39.0659 127.799 37.2191H135.317L140.002 41.9532ZM135.465 17.4315L130.825 12.75H130.692C130.692 12.75 130.771 21.4746 122.981 29.4094C115.356 37.1752 106.392 37.1906 106.392 37.1906V37.3266L111.119 42.0892C111.119 42.0892 119.952 42.1792 127.755 34.3058C135.558 26.4324 135.465 17.4315 135.465 17.4315Z" fill="white"/>
</svg>
