<svg width="158" height="60" viewBox="0 0 158 60" fill="none" xmlns="http://www.w3.org/2000/svg">
<path d="M23.694 7.6001C10.6085 7.6001 0 18.1216 0 31.1002C0 44.0794 10.6085 54.6001 23.694 54.6001C36.781 54.6001 47.3884 44.0794 47.3884 31.1002C47.3884 18.1224 36.781 7.60122 23.6938 7.60122L23.694 7.6001ZM34.56 41.494C34.1356 42.1844 33.2245 42.4033 32.5285 41.9795C26.9654 38.6092 19.9621 37.8459 11.7145 39.7149C10.9197 39.8945 10.1275 39.4006 9.94639 38.612C9.76446 37.8235 10.2605 37.0377 11.0572 36.8581C20.0829 34.8129 27.8249 35.6935 34.0705 39.4792C34.7665 39.9029 34.9872 40.8037 34.56 41.494ZM37.4601 35.0952C36.9253 35.9573 35.7879 36.2295 34.9193 35.6991C28.5504 31.8164 18.8419 30.6919 11.3087 32.9599C10.3318 33.2526 9.29988 32.7065 9.00336 31.7392C8.7091 30.7702 9.25998 29.7487 10.2353 29.4541C18.8403 26.8645 29.5378 28.1189 36.8518 32.5766C37.7204 33.107 37.9948 34.2348 37.4601 35.0952ZM37.7091 28.4321C30.0726 23.9333 17.4734 23.5197 10.1824 25.7145C9.01156 26.0667 7.77343 25.4111 7.41862 24.2499C7.06382 23.0881 7.7242 21.8609 8.89584 21.5079C17.2654 18.9879 31.1789 19.4748 39.9709 24.6515C41.0262 25.2714 41.3714 26.6203 40.7461 27.6634C40.1237 28.7079 38.7599 29.0522 37.7102 28.4321H37.7091ZM64.4637 29.2941C60.3724 28.3265 59.6452 27.6474 59.6452 26.2204C59.6452 24.8723 60.9241 23.9651 62.8283 23.9651C64.673 23.9651 66.5008 24.654 68.4191 26.0723C68.4757 26.1152 68.5493 26.1323 68.62 26.1211C68.6936 26.1104 68.7558 26.0714 68.7983 26.0128L70.7958 23.22C70.8779 23.1049 70.8552 22.9464 70.7449 22.8585C68.4616 21.0421 65.8925 20.1589 62.8877 20.1589C58.471 20.1589 55.3842 22.7881 55.3842 26.5499C55.3842 30.5839 58.0466 32.0123 62.6472 33.1148C66.5602 34.0092 67.2223 34.7585 67.2223 36.0976C67.2223 37.5821 65.8868 38.5054 63.7365 38.5054C61.3485 38.5054 59.3991 37.7056 57.2205 35.8366C57.1667 35.7889 57.0931 35.7693 57.0252 35.7721C56.9517 35.7777 56.8866 35.8114 56.8413 35.8647L54.6004 38.5082C54.5071 38.6204 54.5184 38.7832 54.6259 38.8786C57.161 41.1236 60.279 42.3079 63.646 42.3079C68.405 42.3079 71.4805 39.7289 71.4805 35.7356C71.489 32.3661 69.4547 30.5 64.4721 29.2978L64.4637 29.2941ZM82.2491 25.2924C80.1865 25.2924 78.4945 26.0984 77.0968 27.7499V25.891C77.0968 25.7442 76.978 25.6247 76.8309 25.6247H73.1668C73.0197 25.6247 72.9009 25.7442 72.9009 25.891V46.5453C72.9009 46.6912 73.0197 46.8119 73.1668 46.8119H76.8309C76.978 46.8119 77.0968 46.6912 77.0968 46.5453V40.0264C78.4945 41.5782 80.1865 42.3387 82.2491 42.3387C86.0829 42.3387 89.9648 39.4118 89.9648 33.8164C89.9705 28.2199 86.0886 25.2921 82.2519 25.2921L82.2491 25.2924ZM85.7038 33.8164C85.7038 36.6645 83.9354 38.6541 81.4003 38.6541C78.8963 38.6541 77.0063 36.5747 77.0063 33.8164C77.0063 31.0579 78.8963 28.979 81.4003 28.979C83.893 28.9787 85.7038 31.013 85.7038 33.8164ZM99.9101 25.2924C94.9728 25.2924 91.1051 29.0629 91.1051 33.8773C91.1051 38.6401 94.9474 42.3696 99.8507 42.3696C104.805 42.3696 108.684 38.612 108.684 33.8164C108.684 29.0371 104.83 25.293 99.9101 25.293V25.2924ZM99.9101 38.6822C97.2844 38.6822 95.3039 36.5887 95.3039 33.815C95.3039 31.0287 97.2165 29.0068 99.8507 29.0068C102.493 29.0068 104.485 31.0994 104.485 33.8759C104.485 36.6617 102.561 38.6822 99.9101 38.6822ZM119.226 25.6247H115.194V21.5371C115.194 21.3906 115.076 21.271 114.928 21.271H111.264C111.117 21.271 110.996 21.3906 110.996 21.5371V25.6247H109.236C109.089 25.6247 108.97 25.7442 108.97 25.891V29.0135C108.97 29.16 109.089 29.2798 109.236 29.2798H110.996V37.3604C110.996 40.6241 112.634 42.2798 115.868 42.2798C117.181 42.2798 118.27 42.0104 119.297 41.4323C119.382 41.3874 119.433 41.2976 119.433 41.2022V38.2276C119.433 38.1378 119.385 38.0508 119.305 38.0031C119.226 37.9525 119.127 37.9497 119.045 37.9918C118.341 38.3426 117.659 38.5054 116.895 38.5054C115.721 38.5054 115.194 37.975 115.194 36.7908V29.2812H119.226C119.373 29.2812 119.492 29.1617 119.492 29.0149V25.8927C119.498 25.7459 119.379 25.6264 119.229 25.6264L119.226 25.6247ZM133.271 25.6407V25.1386C133.271 23.6617 133.843 23.0031 135.122 23.0031C135.886 23.0031 136.5 23.1535 137.187 23.3808C137.272 23.4072 137.36 23.394 137.428 23.3437C137.498 23.2935 137.538 23.213 137.538 23.1277V20.066C137.538 19.949 137.464 19.8455 137.348 19.811C136.624 19.5968 135.696 19.3771 134.304 19.3771C130.923 19.3771 129.132 21.2668 129.132 24.84V25.609H127.372C127.225 25.609 127.103 25.7285 127.103 25.875V29.0135C127.103 29.16 127.225 29.2798 127.372 29.2798H129.132V41.741C129.132 41.8897 129.254 42.0076 129.401 42.0076H133.062C133.212 42.0076 133.331 41.8897 133.331 41.741V29.2807H136.751L141.991 41.741C141.397 43.0487 140.812 43.3097 140.014 43.3097C139.369 43.3097 138.687 43.1189 137.993 42.74C137.928 42.7063 137.849 42.7007 137.781 42.7204C137.711 42.7456 137.651 42.7961 137.623 42.8635L136.381 45.5659C136.321 45.695 136.372 45.8437 136.497 45.9111C137.793 46.607 138.961 46.9045 140.407 46.9045C143.112 46.9045 144.609 45.6529 145.924 42.291L152.279 26.0044C152.313 25.9224 152.302 25.8298 152.251 25.7571C152.203 25.685 152.121 25.6415 152.033 25.6415H148.219C148.103 25.6415 148.001 25.7136 147.964 25.82L144.057 36.8862L139.779 25.8127C139.739 25.7097 139.64 25.6415 139.53 25.6415H133.271V25.6407ZM125.128 25.6247H121.464C121.317 25.6247 121.195 25.7442 121.195 25.891V41.741C121.195 41.8897 121.317 42.0076 121.464 42.0076H125.128C125.275 42.0076 125.397 41.8897 125.397 41.741V25.8921C125.397 25.7453 125.278 25.6258 125.128 25.6258V25.6247ZM123.318 18.4073C121.866 18.4073 120.689 19.5724 120.689 21.0118C120.689 22.4519 121.866 23.6185 123.318 23.6185C124.769 23.6185 125.943 22.4519 125.943 21.0118C125.943 19.5727 124.766 18.4073 123.318 18.4073ZM155.408 30.7211C153.96 30.7211 152.831 29.5663 152.831 28.1641C152.831 26.7618 153.974 25.5938 155.422 25.5938C156.871 25.5938 158 26.7483 158 28.1495C158 29.5517 156.857 30.7211 155.408 30.7211ZM155.422 25.8481C154.101 25.8481 153.102 26.8892 153.102 28.1641C153.102 29.4384 154.095 30.4655 155.408 30.4655C156.73 30.4655 157.728 29.4252 157.728 28.1495C157.728 26.8751 156.735 25.8481 155.422 25.8481ZM155.994 28.4124L156.724 29.4249H156.107L155.451 28.496H154.888V29.4249H154.373V26.741H155.578C156.209 26.741 156.622 27.0601 156.622 27.5972C156.625 28.0372 156.367 28.3061 155.997 28.4124H155.994ZM155.558 27.2015H154.888V28.0504H155.558C155.892 28.0504 156.093 27.8879 156.093 27.6255C156.093 27.3494 155.892 27.2015 155.558 27.2015Z" fill="white"/>
</svg>
