<svg width="129" height="60" viewBox="0 0 129 60" fill="none" xmlns="http://www.w3.org/2000/svg">
<path d="M0 21.3V15H23.4396V21.3H15.3102V45H8.13065V21.3H0Z" fill="white"/>
<path d="M78.2164 33.4224L83.407 15H91.1049L81.5049 45H74.8883L69.7423 25.2672H69.6989L64.3359 45H57.7193L48.1192 15H55.8171L61.0053 33.4224H61.0921L65.8499 15H73.461L78.1296 33.4224H78.2164Z" fill="white"/>
<path fill-rule="evenodd" clip-rule="evenodd" d="M85.2806 45L96.5237 15H103.443L114.775 45H107.206L105.39 39.6336H94.6215L92.8483 45H85.2806ZM100.027 23.5356H99.9399L96.6105 33.6336H103.399L100.027 23.5356Z" fill="white"/>
<path fill-rule="evenodd" clip-rule="evenodd" d="M39.4765 44.9988C46.0497 44.9988 49.2935 41.4492 49.2935 36.6312L49.2923 36.6336C49.2923 32.916 47.3901 30.1272 43.2386 29.028V28.944C44.6018 28.4309 45.7635 27.5156 46.5593 26.328C47.3595 25.1349 47.7556 23.7302 47.6927 22.3092C47.6927 17.7036 44.4067 15 37.5743 15H25.9853V44.9988H39.4765ZM37.2284 32.4936C40.342 32.4936 41.7692 33.8028 41.7692 35.6616C41.7692 37.7736 39.9092 38.8308 37.2284 38.8308H33.0769V32.4936H37.2284ZM36.493 26.9556H33.0769V21.2088H36.2326C39.1305 21.2088 40.3854 22.3932 40.3854 24.0828C40.3854 25.9824 38.6544 26.9556 36.493 26.9556Z" fill="white"/>
<path d="M122.476 45L111.144 15H117.644L129 45H122.476Z" fill="white"/>
</svg>
