<svg width="162" height="60" viewBox="0 0 162 60" fill="none" xmlns="http://www.w3.org/2000/svg">
<path d="M27.7892 4.88847C28.1602 7.08293 29.153 9.08095 30.6423 10.5739H30.6369C32.4957 12.4423 33.91 12.9333 34.68 13.2005C34.6964 13.2062 34.7125 13.2118 34.7283 13.2173C35.8085 13.5933 36.9486 13.7842 38.0997 13.7842V21.4788C34.3593 21.4841 30.7114 20.2829 27.6692 18.044V33.7532C27.6692 41.6106 21.4774 47.9807 13.8346 47.9807C11.0911 47.9862 8.40858 47.1477 6.13173 45.573C2.43305 43.0193 0 38.6809 0 33.7532C0 25.9014 6.19174 19.5313 13.84 19.5145C14.4729 19.5145 15.1111 19.5594 15.7385 19.6492V27.5178C15.1329 27.3213 14.4892 27.2147 13.8182 27.2147C10.3214 27.2147 7.4901 30.1332 7.4901 33.7251C7.48908 34.931 7.81404 36.1135 8.42868 37.1403C9.04331 38.1671 9.9234 38.9978 10.9706 39.5396C11.827 39.983 12.7926 40.2355 13.8182 40.2355C17.3041 40.2355 20.1354 37.3339 20.1463 33.7532V3.01392H27.6746V4.00732C27.7019 4.29916 27.7401 4.59662 27.7892 4.88847Z" fill="white"/>
<path d="M48.1155 21.3496V15.9393H67.1654L65.447 21.4956H60.4336V41.9585H54.2745V21.3496H48.1155Z" fill="white"/>
<path d="M98.5387 21.3496V15.9393H117.589L115.87 21.4956H110.857V41.9585H104.698V21.3496H98.5387Z" fill="white"/>
<path d="M71.3223 15.9393C69.6584 15.9393 68.3164 17.3143 68.3164 19.0093C68.3164 20.7042 69.6584 22.0793 71.3223 22.0793C72.9862 22.0793 74.3336 20.7042 74.3336 19.0093C74.3336 17.3143 72.9862 15.9393 71.3223 15.9393Z" fill="white"/>
<path d="M74.3282 41.9585V24.2737H68.3164V41.9585H74.3282Z" fill="white"/>
<path d="M76.9085 41.9585V15.9337H82.9257V28.0677L88.9429 21.9277H96.2475L88.6537 29.5326L97.104 42.1044H90.6558L84.7859 33.4781L82.9257 35.2348V41.9585H76.9085Z" fill="white"/>
<path d="M141.799 41.9585V15.9393L141.805 15.9337H147.822V28.0677L153.839 21.9277H161.144L153.55 29.5326L162 42.1044H155.552L149.676 33.4781L147.816 35.2348V41.9585H141.799Z" fill="white"/>
<path fill-rule="evenodd" clip-rule="evenodd" d="M138.215 31.4352C138.215 37.3282 133.534 42.1044 127.757 42.1044H127.615C121.838 42.1044 117.158 37.3282 117.158 31.4352C117.158 25.5421 121.838 20.766 127.615 20.766H127.757C133.534 20.766 138.215 25.5421 138.215 31.4352ZM127.686 26.2493C124.882 26.2493 122.602 28.5672 122.602 31.4352C122.602 34.3031 124.877 36.6267 127.686 36.6267C130.49 36.6267 132.771 34.2975 132.771 31.4352C132.771 28.5728 130.49 26.2493 127.686 26.2493Z" fill="white"/>
</svg>
