<svg width="164" height="60" viewBox="0 0 164 60" fill="none" xmlns="http://www.w3.org/2000/svg">
<path fill-rule="evenodd" clip-rule="evenodd" d="M43.8254 16L29.8412 43.8495H16.7061L22.5585 32.3074H22.296C17.4678 38.6924 10.2641 42.8956 0 43.8495V32.4672C0 32.4672 6.56621 32.0721 10.4263 27.9377H0V16.0002H11.718V25.8187L11.9811 25.8176L16.7695 16.0002H25.6315V25.7564L25.8945 25.756L30.8625 16H43.8254Z" fill="white"/>
<path d="M120.081 40.7755H123.855V18.7076H120.081V40.7755Z" fill="white"/>
<path fill-rule="evenodd" clip-rule="evenodd" d="M99.2765 40.5501C100.097 40.8976 100.931 41.0711 101.779 41.0711C103.18 41.0711 104.433 40.7238 105.539 40.0291C106.645 39.3344 107.502 38.3766 108.11 37.1562C108.718 35.9262 109.022 34.5321 109.022 32.9736C109.022 31.415 108.709 30.0208 108.082 28.7909C107.456 27.561 106.585 26.6081 105.47 25.9321C104.355 25.2467 103.087 24.9088 101.668 24.9181C100.765 24.9181 99.8986 25.0965 99.0692 25.4533C98.2396 25.8101 97.5486 26.317 96.9955 26.9742C96.9529 27.0243 96.9114 27.0748 96.8712 27.1259V18.7217H93.0834V40.7755H96.8435L96.8359 38.7153C96.9333 38.8367 97.0371 38.9553 97.1477 39.0714C97.7467 39.7005 98.4563 40.1934 99.2765 40.5501ZM103.147 36.9871C102.53 37.372 101.825 37.5646 101.032 37.5646C100.249 37.5646 99.5299 37.3674 98.8756 36.9731C98.2213 36.5693 97.7006 36.0201 97.3135 35.3254C96.9357 34.6307 96.7468 33.842 96.7468 32.9595C96.7375 32.0769 96.9219 31.2883 97.2997 30.5935C97.6868 29.8894 98.2075 29.3449 98.8618 28.9599C99.5161 28.5656 100.24 28.3731 101.032 28.3825C101.825 28.3731 102.53 28.5609 103.147 28.9458C103.774 29.3214 104.253 29.8612 104.585 30.5654C104.926 31.2601 105.096 32.0582 105.096 32.9595C105.096 33.8607 104.926 34.6588 104.585 35.3536C104.253 36.0483 103.774 36.5928 103.147 36.9871Z" fill="white"/>
<path d="M49.2928 20.0455H53.6058L57.4641 34.3997L61.5685 20.0455H65.1627L69.6141 34.1117L73.3188 20.0455H77.2724L71.4387 40.7755H67.72L63.1938 27.034L59.0386 40.7755H55.2785L49.2928 20.0455Z" fill="white"/>
<path fill-rule="evenodd" clip-rule="evenodd" d="M83.6417 41.1417C82.1394 41.1509 80.7847 40.8129 79.5774 40.1276C78.3794 39.4329 77.4347 38.4705 76.7435 37.2407C76.0615 36.0107 75.7205 34.6071 75.7205 33.0299C75.7205 31.4996 76.0708 30.1147 76.7711 28.8754C77.4715 27.6361 78.4208 26.6691 79.6188 25.9744C80.8169 25.2796 82.1532 24.9322 83.6278 24.9322C85.2867 24.9322 86.7382 25.3078 87.9824 26.0589C89.2357 26.8099 90.1711 27.8755 90.7886 29.2557C91.4153 30.6264 91.6411 32.199 91.466 33.9734H79.6247C79.6578 34.6803 79.8309 35.3235 80.1442 35.9027C80.4944 36.5412 80.9829 37.0388 81.6094 37.3955C82.2361 37.7523 82.9366 37.9306 83.7108 37.9306C84.3005 37.9214 84.8489 37.818 85.3558 37.6209C85.8627 37.4144 86.2912 37.1374 86.6415 36.7901C87.0008 36.4426 87.2542 36.0483 87.4017 35.6071H91.3554C91.1158 36.6867 90.6366 37.6491 89.9177 38.494C89.1988 39.3296 88.2956 39.9821 87.2082 40.4516C86.1206 40.9209 84.9318 41.1509 83.6417 41.1417ZM80.158 30.1006C79.9371 30.493 79.7842 30.9155 79.699 31.3681H87.5482C87.4913 30.7963 87.318 30.2752 87.0284 29.8049C86.6968 29.251 86.2452 28.8238 85.6737 28.5234C85.1023 28.2135 84.4573 28.0586 83.7384 28.0586C82.9735 28.0586 82.2777 28.237 81.651 28.5938C81.0244 28.9505 80.5266 29.4528 80.158 30.1006Z" fill="white"/>
<path d="M111.801 25.2561C111.801 23.9981 112.082 22.8808 112.644 21.9044C113.206 20.9186 113.994 20.1534 115.008 19.6089C116.031 19.055 117.225 18.7686 118.589 18.7499V22.172C117.953 22.1814 117.409 22.3175 116.957 22.5804C116.515 22.8339 116.174 23.2047 115.934 23.6929C115.714 24.1424 115.595 24.6634 115.577 25.2561H118.506V28.5093H115.575V40.7755H111.801V28.5093H109.368V25.2561H111.801Z" fill="white"/>
<path fill-rule="evenodd" clip-rule="evenodd" d="M133.449 41.1135C131.91 41.1135 130.532 40.7707 129.316 40.0854C128.108 39.3907 127.159 38.4329 126.468 37.2125C125.786 35.9826 125.445 34.5884 125.445 33.0299C125.445 31.462 125.786 30.0631 126.468 28.8332C127.159 27.5939 128.108 26.6316 129.316 25.9462C130.532 25.2608 131.91 24.9181 133.449 24.9181C134.997 24.9181 136.38 25.2608 137.596 25.9462C138.822 26.6316 139.776 27.5892 140.458 28.8191C141.14 30.049 141.485 31.4526 141.495 33.0299C141.485 34.5884 141.14 35.9826 140.458 37.2125C139.785 38.4329 138.836 39.3907 137.61 40.0854C136.384 40.7707 134.997 41.1135 133.449 41.1135ZM133.449 37.5787C134.26 37.5787 134.979 37.3909 135.606 37.0153C136.232 36.6304 136.716 36.0952 137.057 35.4099C137.398 34.7151 137.569 33.9218 137.569 33.0299C137.569 32.1286 137.398 31.3305 137.057 30.6358C136.716 29.941 136.232 29.4059 135.606 29.0303C134.979 28.6454 134.26 28.4529 133.449 28.4529C132.647 28.4529 131.933 28.6454 131.306 29.0303C130.689 29.4059 130.21 29.941 129.869 30.6358C129.528 31.3305 129.362 32.1286 129.371 33.0299C129.371 33.9218 129.541 34.7151 129.883 35.4099C130.233 36.0952 130.712 36.6304 131.32 37.0153C131.938 37.3909 132.647 37.5787 133.449 37.5787Z" fill="white"/>
<path d="M145.573 25.2561H141.37L145.918 40.7755H149.595L152.587 30.8633L155.817 40.7755H159.438L164 25.2561H160.199L157.612 34.9159L154.752 25.2561H151.075L148.229 35.1288L145.573 25.2561Z" fill="white"/>
</svg>
